<?xml version="1.0" encoding="UTF-8"?>
<svg fill="currentColor" version="1.1" id="cicon11_dark" height="16.0" width="16.0" viewBox="0 0 16.0 16.0" xml:space="preserve" xmlns="http://www.w3.org/2000/svg" xmlns:svg="http://www.w3.org/2000/svg">
  <path d="m 10.611008,4.4033892 c 0,-1.1269022 0,-2.2538043 0,-3.3807063 -2.8332222,0 -5.6664451,0 -8.4996679,0 0,4.6955327 0,9.3910651 0,14.0865981 3.9147786,0 7.8295573,0 11.7443359,0 0,-3.568631 0,-7.1372607 0,-10.7058918 -1.081556,0 -2.163112,0 -3.244668,0 z M 3.7329731,6.4420951 c 1.7257788,0 3.451557,0 5.1773351,0 -0.056376,0.1663881 0.1226371,0.5781261 -0.1074277,0.5634767 -1.6899693,0 -3.3799382,0 -5.0699074,0 0,-0.1878259 0,-0.3756512 0,-0.5634767 z m 8.4998119,6.1333179 c -2.833271,0 -5.6665414,0 -8.4998119,0 0.056377,-0.166388 -0.1226367,-0.578126 0.1074281,-0.563476 2.7974606,0 5.5949218,0 8.3923838,0 0,0.187826 0,0.37565 0,0.563476 z m 0,-1.856564 c -2.833271,0 -5.6665414,0 -8.4998119,0 0.056377,-0.166388 -0.1226367,-0.578126 0.1074281,-0.563476 2.7974606,0 5.5949218,0 8.3923838,0 0,0.187825 0,0.37565 0,0.563476 z m 0,-1.8565943 c -2.833271,0 -5.6665414,0 -8.4998119,0 0.056377,-0.1663877 -0.1226367,-0.5781251 0.1074281,-0.5634751 2.7974606,0 5.5949218,0 8.3923838,0 0,0.1878244 0,0.3756493 0,0.5634751 z M 11.15161,1.1877168 c 0,0.8840654 0,1.7681308 0,2.6521967 0.848167,0 1.696335,0 2.544502,0 C 12.847945,2.9558476 11.999777,2.0717822 11.15161,1.1877168 Z" style="fill:#5db2f1" /> />
</svg>
