<?xml version="1.0" encoding="UTF-8"?>
<svg fill="currentColor" version="1.1" id="cicon35" height="16.0" width="16.0" viewBox="0 0 16.0 16.0" xml:space="preserve" xmlns="http://www.w3.org/2000/svg" xmlns:svg="http://www.w3.org/2000/svg">
  <path d="m 11.755296,8.4012815 h -4 v -0.8 h 4 z M 11.018219,0.956501 H 2.113 V 15.043499 H 13.887 V 3.9389876 Z M 13.345006,14.48 H 2.6550218 V 1.5199718 h 7.9799872 v 2.8174113 h 2.710024 V 14.48 Z m -1.58971,-1.490793 h -4 v -0.8 h 4 z M 11.177003,1.9183673 12.961796,3.7738839 h -1.784793 z" style="fill:#000000" />
  <path d="m 6.5122831,12.841057 v 0.52901 H 3.8670368 v -0.442759 q 1.1753343,-1.238191 1.3955235,-1.531448 0.2231648,-0.295171 0.2231648,-0.460009 0,-0.126503 -0.068437,-0.187837 -0.065462,-0.06326 -0.2023361,-0.06326 -0.1368738,0 -0.2053115,0.069 -0.065462,0.069 -0.065462,0.274089 v 0.295175 H 3.8670368 v -0.113085 q 0,-0.260672 0.041657,-0.410175 0.041657,-0.15142 0.2053116,-0.29709 0.1636541,-0.145669 0.4255008,-0.220421 0.2618468,-0.07475 0.6278369,-0.07475 0.7171028,0 1.0830929,0.230005 0.3689657,0.228088 0.3689657,0.578846 0,0.266422 -0.208287,0.56351 -0.2053116,0.29709 -1.2169919,1.261193 z M 5.7743514,5.3601544 V 8.463301 H 4.5722373 V 6.7996005 q 0,-0.3603408 -0.02678,-0.4331756 Q 4.5186771,6.2935902 4.3966814,6.2571727 4.2776604,6.2188391 3.8610859,6.2188391 H 3.7420645 V 5.8565812 Q 4.6138947,5.7358287 5.0661754,5.3601544 Z" style="fill:#228bcb" />
</svg>