<?xml version="1.0" encoding="UTF-8"?>
<svg fill="currentColor" version="1.1" id="cicon12" height="16.0" width="16.0" viewBox="0 0 16.0 16.0" xml:space="preserve" xmlns="http://www.w3.org/2000/svg" xmlns:svg="http://www.w3.org/2000/svg">
  <path d="M 3.7390645,6.3760588 H 8.928742 V 6.9395296 H 3.7390645 Z m 0,1.856661 H 12.260964 V 8.7961907 H 3.7390645 Z m 0,1.8566612 H 12.260964 V 10.65285 H 3.7390645 Z m 0,1.857776 h 8.5218995 v 0.563471 H 3.7390645 Z M 11.018219,0.95650075 H 2.113 V 15.043499 H 13.887 V 3.9389874 Z m 0.158784,0.96186635 1.784793,1.8555165 H 11.177003 Z M 13.345006,14.48 H 2.6550218 V 1.5199716 h 7.9799872 v 2.8174113 h 2.710024 V 14.48 Z" />
  <path d="M 1.6467286,1.23897 1.3381348,1.535845 6.215088,6.6081106 6.5236817,6.3112356 Z M 6.2482911,1.2663138 3.9318848,3.6159231 4.2287598,3.9245169 6.5529786,1.567095 Z M 3.6311036,3.9206106 1.3068848,6.2780325 1.6115723,6.5788138 3.9279786,4.2292044 Z m 3.8183595,-0.3164062 -2.9101564,0.00586 -0.3105469,0.3144532 0.109375,0.1152343 3.1132813,-0.00781 z m -3.513672,0.00586 -0.00781,0.00195 0.00391,0.00391 z m -0.6015625,0.00195 -2.92578122,0.00586 0.00195,0.4296875 3.10156252,-0.00781 0.1191406,-0.1191406 z m 0.3808594,-3.25781 v 3.0371093 l 0.2128906,0.2207032 0.00781,-0.00195 0.2089844,-0.2109375 v -3.044925 z m 0.2128906,3.875 L 3.715088,4.4460012 V 7.39522 H 4.1447755 V 4.4538137 Z" style="fill:#f3bd59;stroke:#f3bd59;stroke-width:0.6" />
</svg>
