<?xml version="1.0" encoding="UTF-8"?>
<svg fill="currentColor" version="1.1" id="cicon22_dark" height="16.0" width="16.0" viewBox="0 0 16.0 16.0" xml:space="preserve" xmlns="http://www.w3.org/2000/svg" xmlns:svg="http://www.w3.org/2000/svg">
  <path d="M 0.50575596,3.7182295 H 15.494281 V 13.801419 H 0.50575596 Z" style="fill:#5db2f1;stroke:#efefef;stroke-width:0.3" />
  <path d="M 0.35571867,2.0485804 H 15.641006 v 1.562 H 0.35571867 Z" style="fill:#efefef;stroke-width:0.3" />
  <path d="m 10.826176,9.6065914 -0.287981,0.6215136 0.71161,0.879017 L 10.317603,12.04522 9.4510454,11.345807 8.7830957,11.656379 8.6373536,12.663284 7.3479137,12.685892 7.2431673,11.720739 6.5138393,11.426495 5.6638254,12.040279 4.7317971,11.084362 5.4051674,10.320592 5.0886149,9.6763708 4.0817363,9.5306635 4.0852385,8.1383668 5.1492479,8.0586394 5.3196392,7.3862798 4.7108571,6.5333193 5.6578224,5.6200084 6.5293908,6.2996447 7.0697266,5.9777822 7.2204805,4.9511021 8.5099204,4.928495 8.7135379,5.9187015 9.3587577,6.2126784 10.3116,5.6249508 l 0.814438,0.9050731 -0.546813,0.79584 0.184983,0.631928 1.128478,0.1807285 0.02356,1.2855104 z M 6.1634943,8.3745699 q -0.093214,0.3678175 -0.03698,0.727206 0.057235,0.3554345 0.2373456,0.6578235 0.1801095,0.3023896 0.4653771,0.5219906 0.2892222,0.220604 0.6570296,0.313806 0.3678075,0.0932 0.7271906,0.03695 Q 8.5728412,10.5761 8.8712755,10.394973 9.1736658,10.214848 9.3932744,9.9295659 9.6178398,9.6413323 9.7110531,9.2735138 9.804267,8.9056963 9.7440826,8.5453046 9.6878401,8.1859187 9.506732,7.8874837 9.3305779,7.5860967 9.0413546,7.3654925 8.7531345,7.1409336 8.385327,7.0477319 8.0175205,6.9545304 7.6571349,7.0147339 7.3017069,7.071983 6.9993166,7.2521078 6.6979287,7.4282779 6.4773184,7.7175146 6.2567079,8.0067523 6.1634943,8.3745699 Z" style="fill:#000000;stroke:#000000;stroke-width:0.3" />
</svg>
