<?xml version="1.0" encoding="UTF-8"?>
<svg fill="currentColor" version="1.1" id="cicon18" height="16.0" width="16.0" viewBox="0 0 16.0 16.0" xml:space="preserve" xmlns="http://www.w3.org/2000/svg" xmlns:svg="http://www.w3.org/2000/svg">
  <path d="M 8.5463129,11.943672 V 9.7016999 L 11.151399,7.954626 c 1.432797,-0.9608907 2.632778,-1.7628053 2.666624,-1.7820325 0.05256,-0.02986 0.06154,0.2926673 0.06154,2.2113625 v 2.246321 l -2.666625,1.777684 -2.6666241,1.777684 z" style="fill:#2566aa;stroke:#2566aa;stroke-width:0.2" />
  <path d="M 4.9960927,12.402139 2.3420332,10.622783 2.340397,8.3798011 C 2.339097,6.5973328 2.349977,6.1433114 2.393405,6.1684391 2.423459,6.1858301 3.6234402,6.986576 5.0600295,7.947875 L 7.67201,9.6956914 v 2.2449376 c 0,1.234717 -0.00492,2.244022 -0.010929,2.242902 -0.00601,-0.0011 -1.2052556,-0.802746 -2.6649883,-1.781392 z" style="fill:#d4aa00;stroke:#d4aa00;stroke-width:0.2" />
  <path d="M 5.3895527,7.1413795 2.6918015,5.3430941 4.4496768,4.1618115 C 5.4165082,3.5121061 6.635429,2.6952686 7.1583899,2.3466171 L 8.1092274,1.7127052 10.820554,3.5197716 c 1.491229,0.9938866 2.696113,1.8202879 2.67752,1.8364475 C 13.408336,5.4342107 8.1459979,8.9397436 8.1187135,8.9397073 8.1014382,8.9396842 6.8733158,8.1304366 5.3895527,7.1413795 Z" style="fill:#cccccc;stroke:#cccccc;stroke-width:0.2" />
  <path d="M 14.302811,5.3360429 8.1122608,9.4748669 M 1.9217108,5.3360431 8.1122612,9.4748669 V 14.993298 M 14.302812,5.3360431 V 10.854475 L 8.1122612,14.993298 1.9217108,10.854475 V 5.3360431 L 8.1122612,1.1972195 Z" style="fill:none;stroke:#000000;stroke-width:0.8" />
</svg>
