<?xml version="1.0" encoding="UTF-8"?>
<svg fill="currentColor" version="1.1" id="cicon16" height="16.0" width="16.0" viewBox="0 0 16.0 16.0" xml:space="preserve" xmlns="http://www.w3.org/2000/svg" xmlns:svg="http://www.w3.org/2000/svg">
  <path d="M 6.7583138,0.492 C 7.8963535,1.5728962 9.034393,2.6537924 10.172433,3.7346886 8.0004432,6.0215041 5.8284535,8.3083197 3.656464,10.595135 2.5184243,9.514239 1.3803848,8.4333428 0.2423451,7.3524466 2.4143347,5.0656311 4.5863243,2.7788155 6.7583138,0.492 Z" style="fill:#2566aa" />
  <path d="M 10.989661,4.5289412 C 12.571697,6.0575593 14.15373,7.5861768 15.735765,9.1147949 14.984466,9.9195103 14.233168,10.724225 13.481869,11.528941 11.899833,10.000323 10.3178,8.4717056 8.7357647,6.9430875 9.4870634,6.1383721 10.238362,5.3336566 10.989661,4.5289412 Z" style="fill:#8d52ab" />
  <path d="M 7.8573457,7.8172587 C 8.8848419,8.793162 9.912338,9.7690654 10.939835,10.744968 9.3347296,12.43493 7.7296252,14.124891 6.1245207,15.814852 5.0970246,14.838948 4.0695285,13.863045 3.0420323,12.887142 4.6471368,11.197181 6.2522412,9.5072198 7.8573457,7.8172587 Z" style="fill:#d4aa00" />
</svg>