<?xml version="1.0" encoding="UTF-8"?>
<svg fill="currentColor" version="1.1" id="cicon15" height="16.0" width="16.0" viewBox="0 0 16.0 16.0" xml:space="preserve" xmlns="http://www.w3.org/2000/svg" xmlns:svg="http://www.w3.org/2000/svg">
  <path d="m 5.6666666,13.833333 v -3.5 h 4.6666664 v 3.5 H 13.25 c 0.322175,0 0.583333,-0.261158 0.583333,-0.583333 V 2.75 c 0,-0.3221633 -0.261158,-0.5833333 -0.583333,-0.5833333 H 10.333333 V 4.5 c 0,0.3221633 -0.261158,0.5833333 -0.583333,0.5833333 H 6.25 C 5.9278308,5.0833333 5.6666666,4.8221633 5.6666666,4.5 V 2.1666667 H 2.75 c -0.3221633,0 -0.5833333,0.26117 -0.5833333,0.5833333 v 10.5 c 0,0.322175 0.26117,0.583333 0.5833333,0.583333 z M 2.75,1 h 10.5 C 14.216525,1 15,1.7835042 15,2.75 v 10.5 C 15,14.216525 14.216525,15 13.25,15 H 2.75 C 1.7835042,15 1,14.216525 1,13.25 V 2.75 C 1,1.7835042 1.7835042,1 2.75,1 Z m 4.0833333,1.1666667 v 1.75 h 2.3333333 v -1.75 z m 0,11.6666663 H 9.1666666 V 11.5 H 6.8333333 Z" style="fill:#1f1f1f" />
</svg>
