<?xml version="1.0" encoding="UTF-8"?>
<svg fill="currentColor" version="1.1" id="cicon21_dark" height="16.0" width="16.0" viewBox="0 0 16.0 16.0" xml:space="preserve" xmlns="http://www.w3.org/2000/svg" xmlns:svg="http://www.w3.org/2000/svg">
  <path d="M 0.80273438,0.80664062 V 13.394531 H 13.390625 V 0.80664062 Z" style="fill:#5db2f1" />
  <path d="m 2.5686905,2.4586039 h 5.1740771 v 5.174077 H 2.5686905 Z M 0.39999998,0.40365136 H 13.793887 V 13.797538 H 0.39999998 Z" style="fill:none;stroke:#ffffff;stroke-width:0.8" />
  <path d="m 4.0620699,4.0659108 q 0.03125,-0.125 0.15625,-0.34375 0.15625,-0.21875 0.28125,-0.375 0.3125,-0.25 0.59375,-0.25 0.40625,0 0.40625,0.375 0.0625,0.5 0.21875,1.15625 0.09375,0.3125 0.28125,0.3125 0.125,0 0.21875,-0.15625 0.40625,-0.375 0.84375,-0.8125 0.6875,-0.65625 0.9375,-0.96875 0.3125,-0.375 0.84375,-0.875 0.53125,-0.46875 0.8125,-0.65625 0.25,-0.15625 0.4375001,-0.125 0.1875,0.03125 0.15625,0.28125 -0.03125,0.25 0,0.5 0.03125,0.1875 0,0.21875 -0.6250001,0.75 -1.0000001,1.09375 -0.90625,1.0625 -1.21875,1.3125 -1.1875,1.15625 -2.0625,2 -0.3125,0.28125 -0.59375,0.3125 -0.375,0.03125 -0.71875,-0.28125 -0.40625,-0.34375 -0.4375,-0.8125 -0.03125,-0.53125 -0.09375,-0.78125 -0.09375,-0.4375 -0.0625,-1.125 z" style="fill:#2566aa;stroke:#ffffff;stroke-width:0.3" />
  <path d="m 14.434072,12.136284 -0.333847,0.720537 0.824945,1.019065 -1.08067,1.08756 -1.004572,-0.810846 -0.774332,0.360053 -0.168954,1.16733 -1.494805,0.02621 L 10.280408,14.587267 9.4349222,14.246143 8.4495292,14.957718 7.3690597,13.8495 8.1496756,12.964043 7.7827067,12.217181 6.6154657,12.048259 6.6195257,10.434135 7.8529966,10.341705 8.0505255,9.5622219 7.3447846,8.5733637 8.4425701,7.5145398 9.4529506,8.3024589 10.079344,7.9293158 l 0.174764,-1.1902556 1.494805,-0.026209 0.236047,1.1479709 0.747982,0.3408146 1.104598,-0.6813671 0.944151,1.0492737 -0.633902,0.9226369 0.214445,0.7326098 1.308207,0.209523 0.02731,1.490324 z M 9.0287788,10.707971 q -0.1080594,0.42642 -0.04287,0.843068 0.066351,0.412064 0.2751469,0.762631 0.2087953,0.350568 0.5394966,0.605157 0.3352857,0.255752 0.7616727,0.363803 0.426387,0.108051 0.843008,0.04284 0.416622,-0.06521 0.762587,-0.275195 0.350551,-0.208823 0.605136,-0.539558 0.260331,-0.334157 0.36839,-0.760578 0.10806,-0.42642 0.03829,-0.844231 -0.0652,-0.416645 -0.275153,-0.762628 Q 12.700274,9.7938746 12.364987,9.5381227 12.030863,9.277786 11.604476,9.1697349 11.17809,9.0616841 10.760307,9.1314795 10.348271,9.1978498 9.99772,9.406673 9.648331,9.6109113 9.3925847,9.9462306 9.1368383,10.281551 9.0287788,10.707971 Z" style="fill:#cc0000;stroke:#cc0000;stroke-width:0.3" />
</svg>
