<?xml version="1.0" encoding="UTF-8"?>
<svg fill="currentColor" version="1.1" id="cicon39_dark" height="16.0" width="16.0" viewBox="0 0 16.0 16.0" xml:space="preserve" xmlns="http://www.w3.org/2000/svg" xmlns:svg="http://www.w3.org/2000/svg">
  <path d="M 13.65625 1.6933594 L 9.1621094 1.7011719 L 4.6699219 1.7109375 L 4.4335938 1.828125 C 3.9557387 2.0633878 3.5710337 2.5935679 3.3789062 3.2851562 C 3.3765794 3.2935321 3.3791402 3.3845876 3.3769531 3.3925781 C 3.3763999 3.3958937 3.3755427 3.3989406 3.375 3.4023438 C 3.3731889 3.4120975 3.3708115 3.4218818 3.3691406 3.4316406 C 3.3686598 3.4351102 3.3676595 3.4397965 3.3671875 3.4433594 C 3.3663239 3.4485823 3.3660574 3.4537608 3.3652344 3.4589844 C 3.3622188 3.4786052 3.3578754 3.4979835 3.3554688 3.5175781 C 3.3550735 3.5207965 3.3539197 3.5304331 3.3535156 3.5351562 C 3.3532869 3.53708 3.3537386 3.5390921 3.3535156 3.5410156 C 3.3526149 3.5525594 3.3525014 3.5614531 3.3515625 3.5800781 C 3.3512721 3.5850587 3.3499033 3.5900024 3.3496094 3.5957031 C 3.3495447 3.597103 3.3496742 3.5981778 3.3496094 3.5996094 L 3.3496094 3.6015625 L 3.3496094 3.6035156 C 3.3447804 3.6473192 3.3402792 3.6923128 3.3378906 3.7363281 C 3.3302615 3.8769136 3.3184795 4.7519434 3.3085938 5.8652344 C 3.3079844 5.9207042 3.3072303 5.9825839 3.3066406 6.0390625 C 3.306501 6.0530059 3.3067789 6.0660769 3.3066406 6.0800781 C 3.306312 6.119001 3.306964 6.1617905 3.3066406 6.2011719 C 3.3066163 6.203733 3.3047118 6.2064215 3.3046875 6.2089844 C 3.303326 6.5471919 3.2944866 6.2515429 3.2929688 6.7148438 L 3.2871094 8.3710938 L 3.2753906 9.8671875 L 3.2773438 9.8671875 L 3.2773438 9.8691406 L 3.28125 9.8691406 L 3.28125 9.8710938 L 3.2832031 9.8710938 L 3.296875 9.8710938 L 3.9335938 9.8710938 L 3.9355469 9.8710938 L 7.1972656 9.8789062 C 9.1696676 9.8837695 10.82251 9.8971591 11.099609 9.9101562 C 11.117104 9.9156032 11.13298 9.9221481 11.142578 9.9277344 C 11.135821 9.9574535 11.091127 10.02828 11.029297 10.107422 C 11.001106 10.139485 10.969312 10.174071 10.9375 10.208984 C 10.33355 10.871819 10.140131 11.345051 10.144531 12.142578 C 10.147897 12.739215 10.257896 13.144844 10.527344 13.554688 L 10.634766 13.720703 C 10.626846 13.722589 10.620958 13.724476 10.617188 13.726562 L 10.615234 13.728516 L 10.613281 13.728516 L 10.613281 13.730469 L 10.613281 13.732422 C 10.619554 13.748164 10.716165 13.883225 10.828125 14.033203 L 11.03125 14.306641 L 11.216797 14.28125 C 11.832034 14.197761 12.383683 13.582762 12.619141 12.71875 L 12.708984 12.386719 L 12.71875 8.0078125 C 12.719526 7.6032141 12.719895 7.2352997 12.720703 6.9003906 C 12.728519 5.8734508 12.737273 4.9744081 12.746094 4.3964844 C 12.758346 3.8860296 12.773671 3.5463693 12.791016 3.3632812 C 12.79394 3.3405888 12.797303 3.3190195 12.800781 3.2988281 C 12.827897 3.1886078 12.859801 3.088124 12.900391 2.9863281 C 12.905883 2.9733102 12.912029 2.9587172 12.917969 2.9453125 C 12.971071 2.8280895 13.072012 2.6367708 13.183594 2.4453125 C 13.184307 2.444167 13.184831 2.4425545 13.185547 2.4414062 C 13.187147 2.4386981 13.189793 2.4363185 13.191406 2.4335938 C 13.193566 2.4299448 13.195082 2.4255539 13.197266 2.421875 C 13.227579 2.3735306 13.261838 2.3252142 13.296875 2.2714844 C 13.451957 2.0336647 13.595717 1.805737 13.617188 1.765625 L 13.65625 1.6933594 z M 14.34375 1.8652344 L 14.341797 1.8671875 C 14.304318 1.8918021 14.161852 2.0923916 14.083984 2.2246094 C 14.038021 2.2627814 13.962814 2.3576349 13.890625 2.4667969 C 13.796228 2.6095314 13.680716 2.7604414 13.634766 2.8027344 C 13.431362 2.9899565 13.352956 3.5930631 13.347656 5.0039062 L 13.345703 5.6289062 L 13.345703 5.7890625 L 13.345703 6.0800781 L 13.712891 6.0683594 C 14.050537 6.057756 14.101965 6.0470849 14.316406 5.9414062 C 14.746304 5.7295483 15.100362 5.2852466 15.285156 4.7226562 C 15.358914 4.498104 15.377835 4.3638032 15.390625 3.9824219 C 15.408755 3.4418134 15.345284 3.1289894 15.134766 2.6972656 C 14.963583 2.346207 14.507351 1.8652344 14.345703 1.8652344 L 14.34375 1.8652344 z M 5.3046875 4.2265625 L 7.9902344 4.2265625 L 10.675781 4.2265625 L 10.675781 4.5175781 L 10.675781 4.8066406 L 7.9902344 4.8066406 L 5.3046875 4.8066406 L 5.3046875 4.5175781 L 5.3046875 4.2265625 z M 5.3046875 6.1074219 L 7.9902344 6.1074219 L 10.675781 6.1074219 L 10.675781 6.4160156 L 10.675781 6.7246094 L 7.9902344 6.7246094 L 5.3046875 6.7246094 L 5.3046875 6.4160156 L 5.3046875 6.1074219 z M 5.3046875 8.0234375 L 7.9902344 8.0234375 L 10.675781 8.0234375 L 10.675781 8.3144531 L 10.675781 8.6054688 L 7.9902344 8.6054688 L 5.3046875 8.6054688 L 5.3046875 8.3144531 L 5.3046875 8.0234375 z M 5.8574219 10.496094 L 1.8925781 10.505859 L 1.8671875 10.523438 L 1.6054688 10.523438 L 1.1074219 10.521484 L 1.0371094 10.619141 C 0.9109684 10.789755 0.75501027 11.128615 0.67773438 11.402344 C 0.61838107 11.612587 0.6035891 11.75874 0.60351562 12.095703 C 0.60340399 12.607628 0.66059659 12.877328 0.86132812 13.292969 C 1.111147 13.810252 1.5865911 14.204925 2.0527344 14.28125 C 2.1562433 14.2982 4.038903 14.314206 6.2363281 14.316406 L 10.232422 14.320312 L 10.001953 14.011719 L 9.8027344 13.748047 C 9.8025001 13.74733 9.801087 13.742921 9.8007812 13.742188 C 9.6898355 13.475998 9.5320499 12.939527 9.4980469 12.712891 C 9.4052207 12.0942 9.5048157 11.249958 9.7324219 10.720703 C 9.7808949 10.607983 9.8203125 10.5078 9.8203125 10.5 C 9.8203125 10.4922 8.0376346 10.490894 5.8574219 10.496094 z" style="fill:#5db2f1" />
</svg>
