<?xml version="1.0" encoding="UTF-8"?>
<svg fill="currentColor" version="1.1" id="cicon39" height="16.0" width="16.0" viewBox="0 0 16.0 16.0" xml:space="preserve" xmlns="http://www.w3.org/2000/svg" xmlns:svg="http://www.w3.org/2000/svg">
  <path d="M 13.74291,1.6800008 H 4.9596369 c -0.9310258,0 -1.6890898,1.0636556 -1.6890898,2.3699996 V 9.8959983 H 2.2570927 c -0.9310273,0 -1.6890912,0.9922407 -1.6890912,2.2120007 0,1.219759 0.7580639,2.212 1.6890912,2.212 h 8.7832713 c 0.931027,0 1.68909,-1.063656 1.68909,-2.37 V 6.1039995 h 1.013456 c 0.931025,0 1.689089,-0.9922393 1.689089,-2.2119991 0,-1.2197593 -0.758064,-2.2119996 -1.689089,-2.2119996 z M 2.2570927,13.687998 c -0.5398339,0 -1.0134544,-0.738175 -1.0134544,-1.579999 0,-0.841823 0.4736205,-1.58 1.0134544,-1.58 h 7.4705098 a 3.8072102,3.5613194 0 0 0 -0.37633,1.58 3.7686989,3.5252954 0 0 0 0.380384,1.579999 z m 9.7967243,-1.737999 c 0,0.994767 -0.535104,1.737999 -1.013453,1.737999 h -0.52024 A 2.8687516,2.6834716 0 0 1 10.02691,12.107999 2.7978097,2.6171116 0 0 1 10.607956,10.418031 L 11.087659,9.8959983 H 3.9461824 V 4.0500004 c 0,-0.9947673 0.535104,-1.7379993 1.0134545,-1.7379993 H 12.486226 A 4.0504393,3.7888394 0 0 0 12.053818,4.0500004 Z M 13.74291,5.4720003 H 12.729455 V 4.0500004 a 3.1187371,2.9173117 0 0 1 0.556048,-1.7379993 h 0.457407 c 0.539832,0 1.013454,0.7381753 1.013454,1.5799993 0,0.8418232 -0.473622,1.5799998 -1.013454,1.5799999 z M 5.297456,4.208001 h 5.40509 v 0.6319987 h -5.40509 z m 0,1.8959986 h 5.40509 v 0.632 h -5.40509 z m 0,1.8959996 h 5.40509 v 0.6320001 h -5.40509 z" style="fill:#000000" />
</svg>
