<?xml version="1.0" encoding="UTF-8"?>
<svg fill="currentColor" version="1.1" id="cicon14" height="16.0" width="16.0" viewBox="0 0 16.0 16.0" xml:space="preserve" xmlns="http://www.w3.org/2000/svg" xmlns:svg="http://www.w3.org/2000/svg">
  <path d="M 7.8712256,2.2580896 Q 7.4706272,2.0244071 6.9698792,2.0244071 q -1.2184869,0 -1.4187861,1.3353281 L 5.2923733,5.0956617 H 6.6777761 V 6.2473822 H 5.1171115 L 4.3659894,11.655461 q -0.4840564,3.488544 -2.9043385,3.488544 -0.2587199,0 -0.7511221,-0.133532 v -1.19345 q 0.3004488,0.175262 0.7177389,0.175262 1.25187,0 1.585702,-2.436974 L 3.7734376,6.2473822 H 2.9138201 V 5.0956617 H 3.9486994 L 4.1823818,3.2679314 Q 4.3242604,2.1746315 5.0503451,1.5153133 5.7847755,0.85599504 6.9031128,0.85599504 q 0.5341312,0 0.9681128,0.15857026 z" style="fill:#2566aa" />
  <path d="m 9.2185378,7.6335497 q -0.4609375,0.4804687 -0.84375,0.9882812 -0.3789062,0.5078125 -0.6523437,1.0625 -0.2695313,0.5507811 -0.4179688,1.1601561 -0.1484375,0.605469 -0.1484375,1.285156 0,0.292969 0.03125,0.597657 0.035156,0.304687 0.1015625,0.605468 0.066406,0.304688 0.1679688,0.589844 0.1054687,0.289063 0.25,0.542969 H 6.7497878 q -0.1640625,-0.253906 -0.2890625,-0.5625 -0.1210937,-0.304688 -0.203125,-0.628906 -0.082031,-0.320313 -0.125,-0.644532 -0.039063,-0.328125 -0.039063,-0.625 0,-0.65625 0.140625,-1.257812 0.140625,-0.601563 0.40625,-1.1484376 Q 6.9060378,9.0476122 7.2888503,8.5593309 7.6716628,8.0671434 8.1560378,7.6335497 Z M 11.491975,11.2273 12.3826,13.235112 h -1.371093 l -0.359375,-1.046875 q -0.03125,-0.08984 -0.05859,-0.191406 -0.02734,-0.105469 -0.05078,-0.203125 h -0.01953 q -0.05859,0.09766 -0.117187,0.199219 -0.05859,0.101562 -0.121094,0.179687 l -0.7929687,1.0625 H 8.0388503 L 9.8201003,11.211675 8.9646316,9.2351122 H 10.339632 L 10.667757,10.2898 q 0.03906,0.101562 0.06641,0.222656 0.02734,0.117187 0.03906,0.195312 h 0.01563 q 0.04687,-0.08594 0.125,-0.199218 0.07813,-0.117188 0.140625,-0.203125 l 0.78125,-1.0703128 h 1.402344 z m 3.6875,-1.128907 q 0,0.65625 -0.140625,1.257813 -0.140625,0.601562 -0.410156,1.148437 -0.265625,0.546875 -0.648437,1.035157 -0.382813,0.492187 -0.863282,0.925781 h -1.066406 q 0.460938,-0.476563 0.839844,-0.984375 0.382812,-0.503906 0.65625,-1.054688 0.273437,-0.554687 0.421875,-1.160156 0.148437,-0.609375 0.148437,-1.2890623 0,-0.2929688 -0.03516,-0.5976563 -0.03125,-0.3046875 -0.09766,-0.6054687 -0.06641,-0.3046875 -0.171875,-0.59375 -0.105469,-0.2890625 -0.25,-0.546875 h 0.960937 q 0.164063,0.2539062 0.285157,0.5625 0.125,0.3046875 0.207031,0.6289062 0.08203,0.3242188 0.121094,0.6523438 0.04297,0.3242187 0.04297,0.6210933 z" style="fill:#000000" />
</svg>
