<?xml version="1.0" encoding="UTF-8"?>
<svg fill="currentColor" version="1.1" id="cicon20_dark" height="16.0" width="16.0" viewBox="0 0 16.0 16.0" xml:space="preserve" xmlns="http://www.w3.org/2000/svg" xmlns:svg="http://www.w3.org/2000/svg">
  <path d="M 15.242855,7.4428576 H 12.401428 C 12.345714,6.774286 12.122856,6.1057146 11.844285,5.4928574 12.902856,4.6571431 13.571429,3.4314288 13.571429,2.0942861 V 1.8714287 c 0,-0.3342857 -0.222858,-0.5571427 -0.557143,-0.5571427 -0.334286,0 -0.557145,0.222857 -0.557145,0.5571427 v 0.2228574 c 0,1.0028569 -0.445713,1.8942856 -1.225713,2.5071427 -0.278572,-0.39 -0.668572,-0.6685715 -1.058572,-0.9471429 0,-0.055713 0,-0.055713 0,-0.1114285 0,-1.2257145 -1.0028561,-2.2285714 -2.2285705,-2.2285714 -1.2257143,0 -2.2285716,1.0028569 -2.2285716,2.2285713 0,0.055714 0,0.055714 0,0.1114285 -0.39,0.2785715 -0.7242855,0.557143 -1.0585713,0.947143 C 3.988571,3.9885717 3.5428569,3.097143 3.5428569,2.0942861 V 1.8714287 c 0,-0.3342857 -0.2228572,-0.5571427 -0.5571432,-0.5571427 -0.3342854,0 -0.5571427,0.222857 -0.5571427,0.5571427 v 0.2228574 c 0,1.3371427 0.6128574,2.6185714 1.727143,3.3985713 C 3.8771426,6.0500002 3.6542854,6.7185716 3.5985711,7.4428576 H 0.7571423 c -0.33428549,0 -0.55714271,0.222857 -0.55714271,0.5571427 0,0.3342856 0.22285722,0.5571422 0.55714271,0.5571422 h 2.8414288 c 0.055714,0.6685718 0.2785715,1.3371444 0.5571429,1.9500005 -1.1142856,0.78 -1.727143,2.061428 -1.727143,3.398571 v 0.222858 c 0,0.334285 0.2228573,0.557142 0.5571427,0.557142 0.334286,0 0.5571432,-0.222857 0.5571432,-0.557142 v -0.222858 c 0,-1.002856 0.4457141,-1.894287 1.2257143,-2.507144 0.8357142,1.002857 1.95,1.615716 3.2314285,1.615716 1.2814287,0 2.4514283,-0.612859 3.2314283,-1.615716 0.78,0.612857 1.225713,1.504288 1.225713,2.507144 v 0.222858 c 0,0.334285 0.222859,0.557142 0.557145,0.557142 0.334285,0 0.557143,-0.222857 0.557143,-0.557142 v -0.222858 c 0,-1.337143 -0.612858,-2.618571 -1.727144,-3.398571 0.278571,-0.557142 0.501429,-1.2257137 0.557143,-1.9500004 h 2.841427 C 15.577142,8.5571425 15.8,8.3342859 15.8,8.0000003 15.8,7.6657146 15.577142,7.4428576 15.242855,7.4428576 Z" style="fill:#5db2f1" />
</svg>
