<?xml version="1.0" encoding="UTF-8"?>
<svg fill="currentColor" version="1.1" id="cicon17_dark" height="16" width="16" viewBox="0 0 16 16" xml:space="preserve" xmlns:xlink="http://www.w3.org/1999/xlink" xmlns="http://www.w3.org/2000/svg" xmlns:svg="http://www.w3.org/2000/svg">
  <path d="M 7.9999998,0.954501 A 7.0455169,7.0455169 0 0 0 0.9545005,7.9999996 7.0455169,7.0455169 0 0 0 7.9999998,15.045499 7.0455169,7.0455169 0 0 0 15.045498,7.9999996 7.0455169,7.0455169 0 0 0 7.9999998,0.954501 Z" style="fill:#5db2f1;stroke:#5db2f1;stroke-width:0.909" />
  <path d="M 6.8098442,3.6092401 A 1.2317038,1.1228874 0 0 1 8.041548,2.4863529 h 0.01232 a 1.2317038,1.1228874 0 1 1 0,2.2457745 H 8.041548 A 1.2317038,1.1228874 0 0 1 6.8098442,3.6092401 Z m 0.01232,8.9831019 a 1.2317038,1.1228874 0 1 0 2.4634076,0 V 6.9779023 a 1.2317038,1.1228874 0 1 0 -2.4634076,0 z" style="fill:#fffae8" />
</svg>
