<?xml version="1.0" encoding="UTF-8"?>
<svg fill="currentColor" version="1.1" id="cicon19" height="16.0" width="16.0" viewBox="0 0 16.0 16.0" xml:space="preserve" xmlns="http://www.w3.org/2000/svg" xmlns:svg="http://www.w3.org/2000/svg">
  <path d="m 10.821399,11.492801 q -0.339475,0.143333 -0.829823,0.241404 -0.49035,0.105615 -1.033507,0.105615 -0.7921042,0 -1.478594,-0.226317 Q 6.7929848,11.387188 6.2800031,10.927013 5.7670218,10.466838 5.4728116,9.7652604 5.1786015,9.0561385 5.1786015,8.1131578 q 0,-1.0561386 0.3394713,-1.8105231 Q 5.8575441,5.5482498 6.3931592,5.0805315 6.9363162,4.6052692 7.6077184,4.3864976 8.2866646,4.160181 8.9429795,4.160181 q 0.49035,0 0.9429807,0.090527 0.4526308,0.082984 0.8222798,0.2338603 V 5.940531 Q 10.376312,5.7971981 9.9991178,5.7142144 9.6294694,5.623687 9.19947,5.623687 q -0.4299991,0 -0.8222791,0.1357893 Q 7.9849108,5.8877219 7.683157,6.1743876 7.381404,6.4610534 7.2003507,6.9363161 7.0268432,7.4040348 7.0268432,8.0678934 q 0,0.482806 0.1357892,0.9128054 0.1357893,0.4224553 0.3922801,0.7242091 0.2640348,0.3017531 0.6638586,0.4903501 0.4073677,0.181051 0.9580687,0.181051 0.49035,0 0.8901732,-0.09807 0.399825,-0.09807 0.754386,-0.241404 z M 2.3873779,8.0150879 q 0.1056139,0.022627 0.2942101,0.1282456 0.1885962,0.1056146 0.3696485,0.301753 0.1810522,0.1885948 0.3092978,0.4752624 0.1357893,0.2791221 0.1357893,0.6638585 0,0.3847365 -0.09807,0.7015776 -0.090526,0.309297 -0.2187715,0.573333 -0.1584209,0.331927 -0.3017538,0.626139 -0.1433332,0.29421 -0.1433332,0.58842 0,0.528069 0.3847361,0.754385 0.3922801,0.23386 1.1466649,0.23386 h 0.2112294 v 1.305085 H 4.0394802 q -0.6864899,0 -1.2371907,-0.150877 -0.543157,-0.143333 -0.9203493,-0.422455 -0.3696486,-0.271579 -0.5733324,-0.671403 -0.19614,-0.39228 -0.19614,-0.88263 0,-0.241404 0.045263,-0.452631 0.052807,-0.211229 0.1282452,-0.407367 0.082982,-0.196139 0.1810522,-0.377193 0.09807,-0.181051 0.1961399,-0.362106 0.1357892,-0.264035 0.2414031,-0.535613 0.105614,-0.2791218 0.105614,-0.6035076 0,-0.2564912 -0.075439,-0.4299994 Q 1.8668519,8.8977176 1.708431,8.7996466 1.5575541,8.6940319 1.3086071,8.6563137 1.0596602,8.6110518 0.70509935,8.6110518 V 7.3889486 q 0.35456075,0 0.60350775,-0.037718 Q 1.5575539,7.3059686 1.708431,7.2078977 1.8668519,7.1022831 1.9347465,6.9287756 2.0101855,6.7552681 2.0101855,6.4987762 2.0101855,6.144214 1.8743962,5.827374 1.7461507,5.5105335 1.5801857,5.2012342 1.4066772,4.8768502 1.2558003,4.529832 1.112467,4.1828134 1.112467,3.7603596 q 0,-0.49035 0.1961399,-0.8826301 Q 1.5122916,2.4779042 1.8819402,2.2063257 2.2591325,1.9272034 2.8022895,1.7838703 3.3529903,1.6329933 4.0394802,1.6329933 H 4.4770236 V 2.9380789 H 4.2657943 q -0.7770162,0 -1.1542086,0.2338591 -0.3771923,0.2338592 -0.3771923,0.7543849 0,0.2338603 0.082982,0.4526307 0.090526,0.218773 0.2112278,0.4601747 0.082982,0.1584202 0.1659646,0.3319277 0.082982,0.1735074 0.1508769,0.3696484 0.067895,0.1885947 0.1056139,0.4073677 0.045263,0.218773 0.045263,0.4677187 0,0.3847361 -0.1357893,0.6714022 Q 3.2322874,7.3663151 3.0512348,7.5624554 2.8701826,7.7510501 2.6815863,7.8566648 2.4929901,7.9622794 2.3873762,7.9849104 Z M 13.612623,7.984906 Q 13.507008,7.9622787 13.318413,7.8566604 13.129819,7.7510457 12.948765,7.562451 12.767714,7.3663126 12.631925,7.0871886 12.503679,6.8005229 12.503679,6.4157864 q 0,-0.2489475 0.03772,-0.4677187 0.04526,-0.218773 0.113159,-0.4073677 0.06789,-0.1961384 0.150876,-0.3696484 0.08298,-0.1735075 0.165964,-0.3319276 0.120702,-0.241404 0.203686,-0.4601747 0.09053,-0.218773 0.09053,-0.4526307 0,-0.5205256 -0.377192,-0.7543849 Q 12.511221,2.9380789 11.734205,2.9380789 H 11.522977 V 1.6329933 h 0.437543 q 0.68649,0 1.229647,0.1508769 0.550701,0.1433333 0.920349,0.4224554 0.377193,0.2715785 0.573333,0.6714024 0.203686,0.39228 0.203686,0.8826301 0,0.4224553 -0.150877,0.7694724 -0.143333,0.3470186 -0.31684,0.6714022 -0.165964,0.3092967 -0.301753,0.6261396 -0.128246,0.3168404 -0.128246,0.6714022 0,0.2564912 0.06789,0.4299994 0.07544,0.1735075 0.226317,0.2791222 0.15842,0.098071 0.407367,0.1433328 0.248948,0.037718 0.603508,0.037718 V 8.61105 q -0.354562,0 -0.603508,0.045262 -0.248947,0.037718 -0.407367,0.1433329 -0.150877,0.098071 -0.226317,0.2715785 -0.06789,0.1735074 -0.06789,0.4299994 0,0.324384 0.105615,0.6035082 0.105615,0.271578 0.241404,0.535613 0.09807,0.181051 0.196138,0.362105 0.09807,0.181052 0.173508,0.377193 0.08298,0.196138 0.128245,0.407368 0.05281,0.211229 0.05281,0.452631 0,0.49035 -0.203686,0.88263 -0.19614,0.399825 -0.573333,0.671404 -0.369648,0.279122 -0.920349,0.422455 -0.543157,0.150877 -1.229647,0.150877 h -0.437543 v -1.305086 h 0.21123 q 0.754384,0 1.13912,-0.23386 0.392281,-0.226316 0.392281,-0.754384 0,-0.29421 -0.143333,-0.588421 -0.143337,-0.294209 -0.301757,-0.626139 -0.128246,-0.264035 -0.226317,-0.573332 -0.09053,-0.3168408 -0.09053,-0.7015783 0,-0.3847361 0.128245,-0.6638586 0.135789,-0.2866657 0.316841,-0.4752623 0.181051,-0.1961384 0.369648,-0.3017531 0.188595,-0.1056146 0.294209,-0.1282456 z" style="fill:#8000cc;" />
</svg>
