<?xml version="1.0" encoding="UTF-8"?>
<svg fill="currentColor" version="1.1" id="cicon15_dark" height="16.0" width="16.0" viewBox="0 0 16.0 16.0" xml:space="preserve" xmlns="http://www.w3.org/2000/svg" xmlns:svg="http://www.w3.org/2000/svg">
  <path d="M 5.6666666,1 V 3.9166666 C 5.6666666,4.23883 5.9278333,4.5 6.2499999,4.5 h 3.5 C 10.072175,4.5 10.333333,4.23883 10.333333,3.9166666 V 1 H 13.25 C 14.216525,1 15,1.7835043 15,2.75 v 10.5 C 15,14.216525 14.216525,15 13.25,15 H 10.333333 V 11.5 H 5.6666666 V 15 H 2.75 C 1.7835043,15 1,14.216525 1,13.25 V 2.75 C 1,1.7835043 1.7835043,1 2.75,1 Z M 6.8333333,1 H 9.1666666 V 3.3333333 H 6.8333333 Z M 9.1666666,15 H 6.8333333 v -2.333333 h 2.3333333 z" style="fill:#5db2f1" />
</svg>