<?xml version="1.0" encoding="UTF-8"?>
<svg fill="currentColor" version="1.1" id="cicon35_dark" height="16.0" width="16.0" viewBox="0 0 16.0 16.0" xml:space="preserve" xmlns="http://www.w3.org/2000/svg" xmlns:svg="http://www.w3.org/2000/svg">
  <path d="m 10.6275,4.3374073 c 0,-1.1269022 0,-2.2538043 0,-3.3807063 -2.8332223,0 -5.6664452,0 -8.499668,0 0,4.6955327 0,9.391065 0,14.086598 3.9147786,0 7.8295573,0 11.744336,0 0,-3.568631 0,-7.1372606 0,-10.7058917 -1.081556,0 -2.163112,0 -3.244668,0 z M 7.13,7.846095 c 1.7257788,0 3.451557,0 5.177335,0 -0.05638,0.1663881 0.122637,0.5781261 -0.107428,0.5634767 -1.689969,0 -3.3799378,0 -5.069907,0 0,-0.1878259 0,-0.3756512 0,-0.5634767 z m 4.232e-4,4.997938 c 1.7257788,0 3.4515568,0 5.1773348,0 -0.05638,0.166388 0.122637,0.578126 -0.107427,0.563477 -1.68997,0 -3.3799386,0 -5.0699078,0 0,-0.187826 0,-0.375651 0,-0.563477 z M 11.168102,1.1217349 c 0,0.8840654 0,1.7681308 0,2.6521967 0.848167,0 1.696335,0 2.544502,0 C 12.864437,2.8898657 12.016269,2.0058003 11.168102,1.1217349 Z" style="fill:#5db2f1" />
  <path d="m 6.5122831,12.841057 v 0.52901 H 3.8670368 v -0.442759 q 1.1753343,-1.238191 1.3955235,-1.531448 0.2231648,-0.295171 0.2231648,-0.460009 0,-0.126503 -0.068437,-0.187837 -0.065462,-0.06326 -0.2023361,-0.06326 -0.1368738,0 -0.2053115,0.069 -0.065462,0.069 -0.065462,0.274089 v 0.295175 H 3.8670368 v -0.113085 q 0,-0.260672 0.041657,-0.410175 0.041657,-0.15142 0.2053116,-0.29709 0.1636541,-0.145669 0.4255008,-0.220421 0.2618468,-0.07475 0.6278369,-0.07475 0.7171028,0 1.0830929,0.230005 0.3689657,0.228088 0.3689657,0.578846 0,0.266422 -0.208287,0.56351 -0.2053116,0.29709 -1.2169919,1.261193 z M 5.7743514,5.3601544 V 8.463301 H 4.5722373 V 6.7996005 q 0,-0.3603408 -0.02678,-0.4331756 Q 4.5186771,6.2935902 4.3966814,6.2571727 4.2776604,6.2188391 3.8610859,6.2188391 H 3.7420645 V 5.8565812 Q 4.6138947,5.7358287 5.0661754,5.3601544 Z" style="fill:#ffffff" />
</svg>