<?xml version="1.0" encoding="UTF-8"?>
<svg fill="currentColor" version="1.1" id="cicon12_dark" height="16.0" width="16.0" viewBox="0 0 16.0 16.0" xml:space="preserve" xmlns="http://www.w3.org/2000/svg" xmlns:svg="http://www.w3.org/2000/svg">
  <path d="m 10.611008,4.4033892 c 0,-1.1269022 0,-2.2538043 0,-3.3807063 -2.8332222,0 -5.6664451,0 -8.4996679,0 0,4.6955327 0,9.3910651 0,14.0865981 3.9147786,0 7.8295573,0 11.7443359,0 0,-3.568631 0,-7.1372607 0,-10.7058918 -1.081556,0 -2.163112,0 -3.244668,0 z M 3.7329731,6.4420951 c 1.7257788,0 3.451557,0 5.1773351,0 -0.056376,0.1663881 0.1226371,0.5781261 -0.1074277,0.5634767 -1.6899693,0 -3.3799382,0 -5.0699074,0 0,-0.1878259 0,-0.3756512 0,-0.5634767 z m 8.4998119,6.1333179 c -2.833271,0 -5.6665414,0 -8.4998119,0 0.056377,-0.166388 -0.1226367,-0.578126 0.1074281,-0.563476 2.7974606,0 5.5949218,0 8.3923838,0 0,0.187826 0,0.37565 0,0.563476 z m 0,-1.856564 c -2.833271,0 -5.6665414,0 -8.4998119,0 0.056377,-0.166388 -0.1226367,-0.578126 0.1074281,-0.563476 2.7974606,0 5.5949218,0 8.3923838,0 0,0.187825 0,0.37565 0,0.563476 z m 0,-1.8565943 c -2.833271,0 -5.6665414,0 -8.4998119,0 0.056377,-0.1663877 -0.1226367,-0.5781251 0.1074281,-0.5634751 2.7974606,0 5.5949218,0 8.3923838,0 0,0.1878244 0,0.3756493 0,0.5634751 z M 11.15161,1.1877168 c 0,0.8840654 0,1.7681308 0,2.6521967 0.848167,0 1.696335,0 2.544502,0 C 12.847945,2.9558476 11.999777,2.0717822 11.15161,1.1877168 Z" style="fill:#5db2f1" />
  <path d="M 1.6467286,1.23897 1.3381348,1.535845 6.215088,6.6081106 6.5236817,6.3112356 Z M 6.2482911,1.2663138 3.9318848,3.6159231 4.2287598,3.9245169 6.5529786,1.567095 Z M 3.6311036,3.9206106 1.3068848,6.2780325 1.6115723,6.5788138 3.9279786,4.2292044 Z m 3.8183595,-0.3164062 -2.9101564,0.00586 -0.3105469,0.3144532 0.109375,0.1152343 3.1132813,-0.00781 z m -3.513672,0.00586 -0.00781,0.00195 0.00391,0.00391 z m -0.6015625,0.00195 -2.92578122,0.00586 0.00195,0.4296875 3.10156252,-0.00781 0.1191406,-0.1191406 z m 0.3808594,-3.25781 v 3.0371093 l 0.2128906,0.2207032 0.00781,-0.00195 0.2089844,-0.2109375 v -3.044925 z m 0.2128906,3.875 L 3.715088,4.4460012 V 7.39522 H 4.1447755 V 4.4538137 Z" style="fill:#f3bd59;stroke:#f3bd59;stroke-width:0.6" />
</svg>
