<?xml version="1.0" encoding="UTF-8"?>
<svg fill="currentColor" version="1.1" id="cicon20" height="16.0" width="16.0" viewBox="0 0 16.0 16.0" xml:space="preserve" xmlns="http://www.w3.org/2000/svg" xmlns:svg="http://www.w3.org/2000/svg">
  <path d="M 12.200003,8.2000001 H 15.8 m -15.59999981,0 H 3.8000005 m 9.6000015,6.5402969 v -0.23783 c 0,-1.367514 -0.660001,-2.616119 -1.8,-3.329603 v 0 m -9.0000015,3.567433 v -0.23783 c 0,-1.367514 0.6599996,-2.616119 1.7999998,-3.329603 v 0 M 13.400002,1.6597028 v 0.2378289 c 0,1.3675166 -0.660001,2.6161188 -1.8,3.3296059 v 0 M 2.6000006,1.6597028 v 0.2378289 c 0,1.3675166 0.6599996,2.6161189 1.7999998,3.3296059 v 0 M 8,9.3891452 10.400001,11.767436 M 8,3.4434201 V 9.3891452 L 5.6000003,11.767436 M 6.2000005,3.4434201 C 6.2000005,2.432647 6.9800002,1.6597028 8,1.6597028 c 1.0200008,0 1.7999998,0.7729442 1.7999998,1.7837173 m 2.4000032,4.75658 A 4.2000001,4.7565795 0 0 1 8,12.956582 4.2000001,4.7565795 0 0 1 3.8000006,8.2000001 4.2000001,4.7565795 0 0 1 8,3.4434201 a 4.2000001,4.7565795 0 0 1 4.200003,4.75658 z" style="fill:none;stroke:#000000;stroke-width:0.8" />
</svg>
