<?xml version="1.0" encoding="UTF-8"?>
<svg fill="currentColor" version="1.1" id="cicon40_dark" height="16.0" width="16.0" viewBox="0 0 16.0 16.0" xml:space="preserve" xmlns="http://www.w3.org/2000/svg" xmlns:svg="http://www.w3.org/2000/svg">
  <path d="m 0.13781565,13.802722 c 0.010362,-0.09546 0.0387323,-0.394116 0.0630446,-0.663666 0.0243125,-0.269552 0.0884527,-0.807733 0.14253372,-1.195959 C 0.51262321,10.72827 0.65366519,10.284467 0.95443889,10.020384 1.1005193,9.8921238 1.9482526,9.4429429 2.0442361,9.4429429 c 0.027223,0 0.1008735,0.049221 0.1636664,0.1093815 C 2.3182738,9.6580667 2.3298976,9.6602326 2.557286,9.617426 3.0834768,9.5183668 3.4839309,9.2890437 3.6738514,8.9780155 L 3.7457695,8.860237 3.5549419,8.7093968 C 2.8730943,8.1704272 2.5274614,7.3951024 2.5792842,6.5207982 2.6400502,5.4956133 3.2517105,4.6316392 4.1268287,4.3348821 4.3428964,4.2616121 4.4506244,4.2502941 4.7834915,4.2658891 5.1427981,4.2827231 5.2123917,4.2997211 5.4961379,4.4399562 6.0684166,4.7227919 6.4872392,5.2426085 6.69718,5.9306152 6.8154548,6.3182192 6.8239792,6.9582662 6.716218,7.360051 6.5701122,7.9048032 6.1583118,8.4901708 5.6932109,8.8142385 l -0.1215245,0.084675 0.2248927,0.2248931 c 0.2474542,0.2474542 0.5220451,0.3762124 0.9696313,0.4546692 0.1964286,0.034432 0.2760183,0.033396 0.3369385,-0.00439 0.043868,-0.027207 0.1134166,-0.070327 0.1545512,-0.095826 0.0615,-0.038123 0.1431462,-0.011867 0.4594615,0.1477555 0.5329815,0.2689586 0.7931446,0.4495507 0.8940852,0.6206327 0.2128083,0.360684 0.410648,1.390945 0.5515024,2.871983 0.03525,0.370632 0.070308,0.715228 0.077908,0.765769 l 0.013818,0.09189 h -4.56775 -4.56774975 z" style="fill:#5db2f1" />
  <path d="M 9.5813391,12.511854 C 9.3918824,11.084339 9.105714,10.136516 8.7819111,9.8640535 8.721191,9.8129613 8.6642131,9.7494991 8.6552933,9.7230267 8.6260134,9.6361289 8.1545933,9.310918 7.7687106,9.1114141 7.560491,9.0037633 7.3899035,8.9028821 7.3896273,8.887234 7.3874526,8.7640257 8.1717348,8.2642336 8.545438,8.1506819 8.69093,8.1064734 8.7050706,8.1110847 8.8638171,8.2545022 9.0474743,8.4204255 9.049016,8.420473 9.507101,8.2744517 9.6464134,8.230043 9.8353761,8.1393948 9.9270176,8.0730101 10.100707,7.9471901 10.339828,7.6503027 10.339828,7.5604734 c 0,-0.028589 -0.06412,-0.091612 -0.142498,-0.1400501 C 9.8142776,7.1836833 9.3993892,6.5571332 9.2567891,6.0000487 9.1742108,5.677447 9.1730077,5.0131856 9.2544215,4.6929055 c 0.1770784,-0.6966221 0.641124,-1.28971 1.2419475,-1.5873081 0.348005,-0.1723736 0.35223,-0.173282 0.805768,-0.173282 0.447075,0 0.462255,0.0031 0.781605,0.1599465 0.615742,0.3024043 1.101827,0.9275542 1.267438,1.6300403 0.232745,0.9872582 -0.161555,2.127448 -0.920902,2.6629538 -0.135443,0.095518 -0.246261,0.1857522 -0.246261,0.200522 0,0.070042 0.203367,0.3156396 0.360786,0.4357074 0.184798,0.1409498 0.598196,0.2895119 0.911979,0.3277355 0.169975,0.020705 0.198575,0.010915 0.318537,-0.1090474 l 0.131795,-0.1317952 0.173247,0.068468 c 0.240791,0.09516 0.760901,0.3768068 0.92278,0.4996978 0.323244,0.2453899 0.481259,0.7093888 0.641644,1.8841359 0.08932,0.654276 0.227083,1.922666 0.227489,2.094612 9.7e-5,0.04054 -0.653656,0.05123 -3.132489,0.05123 H 9.6071745 Z" style="fill:#22bd63" />
</svg>
