<?xml version="1.0" encoding="UTF-8"?>
<svg fill="currentColor" version="1.1" id="contentstopic" height="16.0" width="16.0" viewBox="0 0 16.0 16.0" xml:space="preserve" xmlns="http://www.w3.org/2000/svg" xmlns:svg="http://www.w3.org/2000/svg">
  <path d="m 14.5,7.5 a 7,7 0 0 1 -7,7 7,7 0 0 1 -7,-7 7,7 0 0 1 7,-7 7,7 0 0 1 7,7 z" style="fill:none;stroke:#2566aa;stroke-miterlimit:50" transform="translate(0.5,0.5)" />
  <path d="M 4.977,4.908 C 5.357,4.107 6.165,3.5 7.4,3.5 9.154,3.5 10.123,4.633 10.1,5.881 10.077,7.106 9.304,7.54 8.612,7.907 8.024,8.216 7.492,8.468 7.504,9.177 v 0.815" style="fill:none;stroke:#2566aa;stroke-width=1;stroke-miterlimit:50" transform="translate(0.5,0.5)" />
  <path d="m 7.456,11.5 h 1.088 v 1.3 H 7.456 Z" style="fill:#2566aa" />
</svg>
