<?xml version="1.0" encoding="UTF-8"?>
<svg fill="currentColor" version="1.1" id="find16" height="16.0" width="16.0" viewBox="0 0 16.0 16.0" xml:space="preserve" xmlns="http://www.w3.org/2000/svg" xmlns:svg="http://www.w3.org/2000/svg">
  <path d="m 15.672852,13.44043 q 0.03516,0.123047 0.03516,0.263672 0,0.345703 -0.199219,0.597656 -0.234375,0.310547 -0.644531,0.380859 -0.03516,0.0059 -0.07031,0.0059 -0.0293,0 -0.06445,0 -0.210937,0 -0.416015,-0.06445 -0.199219,-0.06445 -0.363282,-0.1875 L 10.44043,11.758789 q -0.164063,-0.123047 -0.28125,-0.304687 -0.117188,-0.1875 -0.1699222,-0.398438 -0.017578,-0.06445 -0.023437,-0.123047 -0.00586,-0.05859 -0.00586,-0.123047 L 9.2626953,10.276367 q -0.75,0.744141 -1.7050781,1.142578 -0.9492188,0.398438 -2.0039063,0.398438 -1.0605468,0 -2.015625,-0.398438 -0.9550781,-0.398437 -1.6992187,-1.142578 -0.75,-0.7499998 -1.14843751,-1.7050779 -0.3984375,-0.9550782 -0.3984375,-2.0097657 0,-1.0605468 0.3984375,-2.0097656 0.39843751,-0.9550781 1.14843751,-1.6992187 0.7441406,-0.75 1.6992187,-1.1425782 0.9550782,-0.3984375 2.015625,-0.3984375 1.0546875,0 2.0097657,0.3984375 0.9609375,0.3925782 1.7050781,1.1425782 0.7441403,0.7441406 1.1367183,1.6992187 0.398438,0.9492188 0.398438,2.0097656 0,0.7617188 -0.210938,1.4707032 -0.210937,0.7089843 -0.6035152,1.3417968 l 0.6738282,0.5097657 q 0.04102,-0.011719 0.07031,-0.017578 0.0293,-0.011719 0.05859,-0.011719 0.04102,-0.00586 0.08203,-0.00586 0.04102,0 0.08203,0 0.205078,0 0.404297,0.064453 0.199218,0.058594 0.351562,0.1757811 l 3.509766,2.671875 q 0.158203,0.117188 0.27539,0.304688 0.123047,0.18164 0.175782,0.375 z M 5.5537109,10.499023 q 0.8085938,0 1.5234375,-0.304687 0.7207032,-0.3105469 1.2539063,-0.8496094 0.5332031,-0.5390625 0.84375,-1.2539063 0.3164062,-0.7207031 0.3164062,-1.5292969 0,-0.8144531 -0.3164062,-1.5292968 Q 8.8642578,4.3115234 8.3310547,3.7783203 7.7978516,3.2451172 7.0771484,2.9345703 6.3623047,2.6240234 5.5537109,2.6240234 q -0.8144531,0 -1.5351562,0.3105469 -0.7148438,0.3105469 -1.2539063,0.84375 -0.5332031,0.5332031 -0.84375,1.2539063 -0.3046875,0.7148437 -0.3046875,1.5292968 0,0.8085938 0.3046875,1.5292969 0.3105469,0.7148438 0.84375,1.2539063 0.5390625,0.5390625 1.2539063,0.8496094 0.7207031,0.304687 1.5351562,0.304687 z" style="fill:#5db2f1" />
</svg>
