<?xml version="1.0" encoding="UTF-8" standalone="no"?>
<!-- Created with Inkscape (http://www.inkscape.org/) -->

<svg
   version="1.1"
   id="svg1"
   width="218"
   height="44"
   viewBox="0 0 218 44"
   sodipodi:docname="innka.svg"
   inkscape:version="1.4.2 (f4327f4, 2025-05-13)"
   xmlns:inkscape="http://www.inkscape.org/namespaces/inkscape"
   xmlns:sodipodi="http://sodipodi.sourceforge.net/DTD/sodipodi-0.dtd"
   xmlns="http://www.w3.org/2000/svg"
   xmlns:svg="http://www.w3.org/2000/svg">
  <defs
     id="defs1" />
  <sodipodi:namedview
     id="namedview1"
     pagecolor="#ffffff"
     bordercolor="#000000"
     borderopacity="0.25"
     inkscape:showpageshadow="2"
     inkscape:pageopacity="0.0"
     inkscape:pagecheckerboard="true"
     inkscape:deskcolor="#d1d1d1"
     inkscape:zoom="2.3073394"
     inkscape:cx="109.8668"
     inkscape:cy="21.88668"
     inkscape:window-width="1280"
     inkscape:window-height="729"
     inkscape:window-x="-8"
     inkscape:window-y="-8"
     inkscape:window-maximized="1"
     inkscape:current-layer="svg1" />
  <path
     d="m 29.571638,17.856507 c -1.906796,5.361539 -3.813591,10.723078 -5.720387,16.084617 -1.728297,0 -3.456593,0 -5.18489,0 1.906796,-5.361539 3.813591,-10.723078 5.720387,-16.084617 1.728297,0 3.456593,0 5.18489,0 z m 2.345292,-6.201816 c -0.462558,1.303384 -0.925116,2.606768 -1.387674,3.910152 -1.823782,0 -3.647565,0 -5.471347,0 0.462558,-1.303384 0.925115,-2.606768 1.387673,-3.910152 1.823783,0 3.647565,0 5.471348,0 z m 17.154956,9.839833 c -0.822085,3.496604 -2.314573,6.887951 -3.44737,10.335396 -0.466603,0.678596 -0.273368,2.338909 -1.349122,2.111204 -1.53722,0 -3.074439,0 -4.611659,0 1.182713,-3.558517 2.6809,-7.065797 3.587456,-10.670561 0.329384,-2.853362 -4.402564,-1.870409 -5.493459,-0.290537 -1.293482,3.6537 -2.586965,7.307399 -3.880448,10.961098 -1.728297,0 -3.456593,0 -5.18489,0 1.902022,-5.361539 3.804042,-10.723078 5.706064,-16.084617 1.728297,0 3.456593,0 5.18489,0 -0.389072,1.064267 -1.159339,2.551411 0.605623,1.056314 2.64632,-1.660991 6.715003,-2.412575 8.510825,0.127116 0.415064,0.709788 0.48065,1.598236 0.37209,2.454587 z m 20.89711,0 c -0.822085,3.496604 -2.314573,6.887951 -3.44737,10.335396 -0.466603,0.678596 -0.273368,2.338909 -1.349122,2.111204 -1.53722,0 -3.074439,0 -4.611659,0 1.182712,-3.558517 2.680899,-7.065797 3.587455,-10.670561 0.329385,-2.853362 -4.402563,-1.870409 -5.493458,-0.290537 -1.293482,3.6537 -2.586965,7.307399 -3.880448,10.961098 -1.728297,0 -3.456593,0 -5.18489,0 1.902022,-5.361539 3.804042,-10.723078 5.706064,-16.084617 1.728297,0 3.456593,0 5.18489,0 -0.389072,1.064267 -1.159339,2.551411 0.605623,1.056314 2.64632,-1.660991 6.715003,-2.412575 8.510824,0.127116 0.415065,0.709789 0.480649,1.598234 0.372091,2.454587 z m 20.331547,2.248695 c -0.411182,5.082222 -4.899228,10.107689 -10.139834,10.588427 -3.289462,0.476159 -7.391873,-0.242262 -8.301966,-3.656143 -1.174672,-5.321401 3.120995,-11.851784 8.865335,-12.990199 3.483131,-0.778504 8.056352,-0.421771 9.336007,3.102642 0.325756,0.917536 0.367042,1.943873 0.240458,2.955273 z m -7.357336,5.270827 c 1.493523,-2.005614 2.337931,-4.653776 1.827254,-6.910799 -1.655842,-2.92957 -6.177112,-0.194933 -6.872783,2.703 -0.857327,2.108967 -1.800052,5.888314 1.247192,6.116102 1.424131,0.143506 2.891157,-0.727236 3.798337,-1.908303 z"
     id="text16"
     style="font-style:italic;font-weight:bold;font-size:29.3333px;font-family:Verdana;-inkscape-font-specification:'Verdana Bold Italic';letter-spacing:0px;word-spacing:0px;display:inline;fill:#004a7f;fill-rule:evenodd;stroke-width:2.2;stroke-linecap:square;stroke-linejoin:round;stroke-opacity:0.988235"
     aria-label="inno" />
  <path
     d="m 99.164114,34.723403 c -2.26463,-0.306058 -8.26781,0.09579 -7.831388,-2.680907 0.559624,-1.359834 1.119249,-2.719667 1.678873,-4.079501 2.275597,1.200362 4.811963,3.205061 7.797631,2.821611 4.3535,1.171065 7.22063,-4.724353 1.61298,-5.004064 -3.644448,-0.442557 -8.077826,-3.544979 -5.690517,-7.647533 2.822548,-5.471106 9.920847,-6.031854 15.342457,-5.213759 2.54012,0.159222 4.7982,1.117344 2.85594,3.619758 -0.4838,2.109709 -1.57872,3.433739 -3.39353,1.075691 -2.87341,-1.342037 -7.84799,-2.059654 -9.53923,1.253254 1.09796,4.017819 8.40581,2.009672 9.61837,6.559888 0.74026,4.852049 -4.09424,8.424992 -8.47089,8.966583 -1.31255,0.236105 -2.64862,0.328566 -3.980696,0.328979 z M 136.80344,13.009887 c -0.57402,1.346353 -1.14803,2.692705 -1.72205,4.039058 -3.31814,0 -6.63628,0 -9.95442,0 -0.54473,1.269964 -1.08947,2.539927 -1.6342,3.809891 3.07942,0 6.15885,0 9.23827,0 -0.57972,1.351127 -1.15945,2.702254 -1.73917,4.053381 -3.07942,0 -6.15885,0 -9.23827,0 -0.76695,1.795137 -1.53389,3.590273 -2.30084,5.38541 3.31814,0 6.63627,0 9.95441,0 -0.56924,1.346353 -1.13848,2.692705 -1.70772,4.039058 -5.15147,0 -10.30294,0 -15.45441,0 3.03466,-7.108933 6.06933,-14.217865 9.10399,-21.326798 5.15147,0 10.30294,0 15.45441,0 z m 19.54495,4.124995 c -2.21528,0 -4.43055,0 -6.64583,0 -2.44549,5.733934 -4.89097,11.467869 -7.33646,17.201803 -1.84288,0 -3.68576,0 -5.52864,0 2.44549,-5.733934 4.89097,-11.467869 7.33646,-17.201803 -2.21527,0 -4.43055,0 -6.64582,0 0.5844,-1.374998 1.1688,-2.749997 1.7532,-4.124995 6.27343,0 12.54686,0 18.82029,0 -0.5844,1.374998 -1.1688,2.749997 -1.7532,4.124995 z m 23.75317,-4.124995 c -2.44899,5.420588 -4.44232,11.067639 -7.2736,16.299236 -3.08689,5.399389 -10.37595,6.538976 -15.83352,4.59698 -3.622,-1.497448 -2.55542,-5.995007 -1.11101,-8.718237 1.73721,-4.059326 3.47443,-8.118653 5.21164,-12.177979 1.85243,0 3.70486,0 5.55729,0 -2.03748,4.977034 -4.39966,9.838206 -6.21166,14.895816 -0.13008,5.005541 7.83682,2.46345 8.32157,-1.389321 1.92733,-4.502165 3.85466,-9.00433 5.78199,-13.506495 1.85243,0 3.70487,0 5.5573,0 z m 20.22836,5.901035 c -1.1814,6.087882 -8.06895,8.703428 -13.64894,8.479157 -1.59644,-0.346198 -2.60569,0.196633 -2.88099,1.85071 -0.72494,1.698632 -1.44988,3.397264 -2.17482,5.095896 -1.84288,0 -3.68576,0 -5.52864,0 3.03466,-7.108933 6.06932,-14.217865 9.10398,-21.326798 4.20737,0.166782 8.52334,-0.470053 12.622,0.676757 2.21461,0.688113 3.09958,3.106379 2.50741,5.224278 z m -5.97618,0.529947 c 0.48802,-2.904141 -3.73137,-2.693118 -5.40885,-2.243583 -0.87954,2.060794 -1.75907,4.121587 -2.63861,6.182381 3.12921,0.132122 7.31795,-0.09437 8.04746,-3.938798 z"
     id="text17"
     style="font-style:italic;font-weight:bold;font-size:29.3333px;font-family:Verdana;-inkscape-font-specification:'Verdana Bold Italic';letter-spacing:0px;word-spacing:0px;display:inline;fill:#0c71ff;fill-rule:evenodd;stroke-width:2.2;stroke-linecap:square;stroke-linejoin:round;stroke-opacity:0.988235"
     aria-label="SETUP" />
  <path
     id="path18"
     style="fill:none;fill-rule:evenodd;stroke:#206190;stroke-width:2.2;stroke-opacity:0.988235"
     d="M 28.117719,4.7097662 C 16.753267,5.4632729 10.912881,16.347201 8.5350708,26.217505 7.1308189,30.788424 5.7265669,35.359343 4.322315,39.930262 c 61.836125,0 123.672245,0 185.508375,0 10.93362,-0.710035 17.15704,-11.230848 19.45344,-20.923396 1.46412,-4.765701 2.92825,-9.5314018 4.39237,-14.2971029 -61.85293,1e-6 -123.705854,2.1e-6 -185.558781,3.1e-6 z" />
</svg>
