<?xml version="1.0" encoding="UTF-8" standalone="no"?>
<!-- Uploaded to: SVG Repo, www.svgrepo.com, Generator: SVG Repo Mixer Tools -->

<svg
   fill="currentColor"
   version="1.1"
   id="ispp32"
   height="16.0"
   width="16.0"
   viewBox="0 0 16.0 16.0"
   xml:space="preserve"
   sodipodi:docname="ispp32.svg"
   inkscape:version="1.4.2 (f4327f4, 2025-05-13)"
   xmlns:inkscape="http://www.inkscape.org/namespaces/inkscape"
   xmlns:sodipodi="http://sodipodi.sourceforge.net/DTD/sodipodi-0.dtd"
   xmlns:xlink="http://www.w3.org/1999/xlink"
   xmlns="http://www.w3.org/2000/svg"
   xmlns:svg="http://www.w3.org/2000/svg"><defs
   id="defs1"><linearGradient
     id="linearGradient170"
     inkscape:collect="always"><stop
       style="stop-color:#ffffff;stop-opacity:1;"
       offset="0"
       id="stop170" /><stop
       style="stop-color:#c2d6ea;stop-opacity:1;"
       offset="1"
       id="stop171" /></linearGradient><linearGradient
     id="linearGradient154"
     inkscape:swatch="gradient"><stop
       style="stop-color:#000000;stop-opacity:1;"
       offset="0"
       id="stop154" /><stop
       style="stop-color:#000000;stop-opacity:0;"
       offset="1"
       id="stop155" /></linearGradient><filter
     style="color-interpolation-filters:sRGB"
     id="filter16"
     inkscape:label="фильтр1"
     x="-0.052402684"
     y="-0.053863735"
     width="1.1048054"
     height="1.1077275" /><filter
     style="color-interpolation-filters:sRGB;"
     inkscape:label="Drop Shadow"
     id="filter147"
     x="-9.639829"
     y="-15.516196"
     width="16.061855"
     height="25.243546"><feFlood
       result="flood"
       in="SourceGraphic"
       flood-opacity="0.498039"
       flood-color="rgb(0,0,0)"
       id="feFlood146" /><feGaussianBlur
       result="blur"
       in="SourceGraphic"
       stdDeviation="26.747721"
       id="feGaussianBlur146" /><feOffset
       result="offset"
       in="blur"
       dx="-50.000000"
       dy="-50.000000"
       id="feOffset146" /><feComposite
       result="comp1"
       operator="out"
       in="flood"
       in2="offset"
       id="feComposite146" /><feComposite
       result="comp2"
       operator="in"
       in="comp1"
       in2="SourceGraphic"
       id="feComposite147" /></filter><radialGradient
     inkscape:collect="always"
     xlink:href="#linearGradient16"
     id="radialGradient17"
     cx="6.7289019"
     cy="7.5004034"
     fx="6.7289019"
     fy="7.5004034"
     r="4.7911096"
     gradientTransform="matrix(0.78184668,1.6856606,-1.8379788,0.85249511,13.376842,-12.066452)"
     gradientUnits="userSpaceOnUse" /><linearGradient
     id="linearGradient16"
     inkscape:collect="always"><stop
       style="stop-color:#ffffff;stop-opacity:1;"
       offset="0"
       id="stop16" /><stop
       style="stop-color:#1587f2;stop-opacity:1;"
       offset="0.43881699"
       id="stop17" /><stop
       style="stop-color:#0b549d;stop-opacity:1;"
       offset="0.62073535"
       id="stop147" /><stop
       style="stop-color:#0a396b;stop-opacity:1;"
       offset="0.9092536"
       id="stop14" /></linearGradient><linearGradient
     inkscape:collect="always"
     xlink:href="#linearGradient23"
     id="linearGradient24"
     x1="6.5433278"
     y1="7.8980126"
     x2="10.409824"
     y2="12.921018"
     gradientUnits="userSpaceOnUse"
     gradientTransform="matrix(1.4044647,0,0,1.4044647,-4.3376431,-5.4222295)" /><linearGradient
     id="linearGradient23"
     inkscape:collect="always"><stop
       style="stop-color:#eaeaea;stop-opacity:1;"
       offset="0"
       id="stop23" /><stop
       style="stop-color:#0b509e;stop-opacity:1;"
       offset="1"
       id="stop24" /></linearGradient><radialGradient
     inkscape:collect="always"
     xlink:href="#linearGradient11"
     id="radialGradient12"
     cx="9.6947861"
     cy="8.465826"
     fx="9.6947861"
     fy="8.465826"
     r="13.953934"
     gradientTransform="matrix(-0.25529997,0.49562222,-0.58904528,-0.3034231,12.09961,3.450842)"
     gradientUnits="userSpaceOnUse" /><linearGradient
     id="linearGradient11"
     inkscape:collect="always"><stop
       style="stop-color:#ffffff;stop-opacity:0.79872882;"
       offset="0"
       id="stop11" /><stop
       style="stop-color:#529cd4;stop-opacity:1;"
       offset="0.52747095"
       id="stop12" /><stop
       style="stop-color:#235b8e;stop-opacity:1;"
       offset="0.67782623"
       id="stop13" /><stop
       style="stop-color:#0b3159;stop-opacity:1;"
       offset="0.99837661"
       id="stop15" /></linearGradient><linearGradient
     inkscape:collect="always"
     xlink:href="#linearGradient170"
     id="linearGradient171"
     x1="9.722353"
     y1="6.2643476"
     x2="9.656374"
     y2="13.922525"
     gradientUnits="userSpaceOnUse" /></defs><sodipodi:namedview
   id="namedview1"
   pagecolor="#ffffff"
   bordercolor="#000000"
   borderopacity="0.25"
   inkscape:showpageshadow="2"
   inkscape:pageopacity="0.0"
   inkscape:pagecheckerboard="true"
   inkscape:deskcolor="#d1d1d1"
   inkscape:zoom="30.3125"
   inkscape:cx="8"
   inkscape:cy="8"
   inkscape:window-width="1280"
   inkscape:window-height="729"
   inkscape:window-x="-8"
   inkscape:window-y="-8"
   inkscape:window-maximized="1"
   inkscape:current-layer="cicon11" />
  
<path
   id="path169"
   style="fill:url(#linearGradient171);fill-opacity:1;stroke:#1f5a87;stroke-width:0.506;stroke-linecap:butt;stroke-linejoin:miter;stroke-dasharray:none;stroke-opacity:1"
   d="m 4.078125,1.2734375 -0.058594,13.5156245 11.242188,-0.0293 0.0293,-10.666016 -0.04687,-0.048828 h -2.636727 l -0.01096,-2.719937 -0.04959,-0.051543 z m 8.426476,-0.061958 2.789717,2.8040173 c 0,0 0,0.076695 0,0" /><path
   id="path3-8"
   style="display:inline;mix-blend-mode:normal;fill:url(#radialGradient17);stroke:url(#linearGradient24);stroke-width:0.0395449;stroke-dasharray:none;stroke-opacity:1"
   d="M 6.779654,2.0745931 A 6.0906305,5.9254233 0 0 0 0.68903879,8 6.0906305,5.9254233 0 0 0 6.779654,13.925407 6.0906305,5.9254233 0 0 0 12.870271,8 6.0906305,5.9254233 0 0 0 6.779654,2.0745931 Z"
   inkscape:transform-center-x="-3.7491852"
   inkscape:transform-center-y="5.990854" /><path
   id="path9"
   style="display:inline;fill:#ffffff;fill-opacity:1;stroke:url(#radialGradient12);stroke-width:0.22197;stroke-linecap:butt;stroke-linejoin:miter;stroke-dasharray:none;stroke-opacity:1"
   d="m 4.1267606,5.8979431 c -0.02506,-0.02506 -0.5837485,0.4686773 -1.0006005,0.8844125 -1.899562,1.894473 -2.76504257,3.9535774 -2.22230361,5.2874014 0.28487031,0.700091 0.98517941,1.1874 1.91622741,1.332688 0.308219,0.0481 0.9627654,0.05499 1.3413596,0.01387 2.2268445,-0.241823 4.9289642,-1.657227 6.9140255,-3.6217565 0.156067,-0.1544522 0.291243,-0.296035 0.360702,-0.3763092 l 0.05463,0.059828 V 11.294595 L 12.866839,9.9757794 V 7.0468123 l -2.752951,-0.028612 -1.3769097,1.435003 1.8746077,0.058094 0.05289,0.058094 c -0.0706,0.049509 -0.203887,0.1483451 -0.348561,0.2583868 C 7.9090994,10.658452 5.0638391,11.652095 3.4209644,11.235635 3.3243043,11.211134 3.1358606,11.137207 3.0021689,11.071759 2.5700579,10.860218 2.2964872,10.519531 2.1871219,10.056418 2.121033,9.7765615 2.1476663,9.2766668 2.248684,8.9075489 2.4795955,8.0637992 3.0860823,7.0686302 3.9325364,6.1433255 4.0373319,6.0287688 4.1187937,5.9276028 4.1267606,5.903147 c 9.32e-5,-3.756e-4 7.991e-4,-0.00226 8.879e-4,-0.00262 V 5.8996399 5.898752 h -8.879e-4 z" /></svg>
